<?xml version="1.0" encoding="UTF-8" standalone="no"?>
<!DOCTYPE svg PUBLIC "-//W3C//DTD SVG 1.1//EN" "http://www.w3.org/Graphics/SVG/1.1/DTD/svg11.dtd">
<svg width="100%" height="100%" viewBox="0 0 300 300" version="1.1" xmlns="http://www.w3.org/2000/svg" xmlns:xlink="http://www.w3.org/1999/xlink" xml:space="preserve" xmlns:serif="http://www.serif.com/" style="fill-rule:evenodd;clip-rule:evenodd;stroke-linejoin:round;stroke-miterlimit:2;">
    <rect id="Artboard1" x="0" y="0" width="300" height="300" style="fill:none;"/>
    <clipPath id="_clip1">
        <rect x="0" y="0" width="300" height="300"/>
    </clipPath>
    <g clip-path="url(#_clip1)">
        <path d="M282.11,50.993c15.899,11.579 21.826,30.363 15.246,54.792c-6.229,24.16 -16.719,35.604 -41.305,43.233c-2.123,0.721 -4.383,1.341 -6.77,1.884c-3.821,-2.887 -8.539,-5.208 -14.239,-6.914c-3.934,-1.271 -9.179,-2.225 -15.407,-2.861l0.656,-1.589c8.85,-0.954 16.718,-2.226 23.274,-4.451c24.586,-7.629 35.076,-19.073 41.305,-43.233c4.385,-16.282 3.215,-30.056 -2.76,-40.861Zm-23.124,111.938c16.479,10.202 19.094,29.12 12.8,53.798c-11.146,43.869 -36.059,59.445 -92.771,59.445l-166.529,0c1.38,-4.619 2.742,-9.25 4.097,-13.931l149.946,0c56.712,0 81.626,-15.576 92.771,-59.445c4.072,-15.967 4.415,-29.523 -0.314,-39.867Zm-93.254,11.551c-1.649,-0.239 -3.452,-0.35 -5.402,-0.35c-7.212,-0 -15.735,0.317 -24.914,0.635c-2.965,11.501 -5.771,22.848 -8.309,33.398c-4.874,-0.058 -10.015,-0.209 -15.65,-0.599c3.278,-13.987 7.211,-30.199 11.473,-46.73c9.179,-0.318 17.702,-0.635 24.914,-0.635c11.333,-0 17.667,3.77 17.888,14.281Zm21.398,-87.202c-1.31,-0.17 -2.706,-0.25 -4.181,-0.25c-7.868,-0 -16.063,-0 -24.914,0.318c-2.657,9.837 -5.67,21.573 -8.907,34.062c-5.023,-0.019 -10.447,-0.084 -16.036,-0.31c4.59,-17.484 8.851,-34.332 12.457,-47.683c8.851,-0.318 17.046,-0.318 24.914,-0.318c10.087,-0 16.488,3.762 16.667,14.181Z"/>
        <path d="M166.529,262.243c56.712,0 81.626,-15.576 92.771,-59.445c7.54,-29.564 2.295,-50.863 -24.258,-58.81c-3.934,-1.271 -9.179,-2.225 -15.407,-2.861l0.656,-1.589c8.85,-0.954 16.718,-2.226 23.274,-4.451c24.586,-7.629 35.076,-19.073 41.305,-43.233c11.473,-42.597 -15.08,-68.028 -66.219,-68.028l-157.35,-0c-7.212,33.378 -16.063,68.664 -29.175,119.208c-12.785,50.545 -21.964,85.195 -32.126,119.209l166.529,0Zm-18.685,-102.042c15.079,-0 21.308,6.675 16.063,27.02c-3.934,15.895 -12.457,20.981 -27.864,20.981c-7.54,-0 -15.408,-0 -24.586,-0.636c3.278,-13.987 7.211,-30.199 11.473,-46.73c9.179,-0.318 17.702,-0.635 24.914,-0.635Zm-14.752,-39.101c4.59,-17.484 8.851,-34.332 12.457,-47.683c8.851,-0.318 17.046,-0.318 24.914,-0.318c13.112,-0 19.997,6.358 15.079,25.431c-4.261,16.53 -12.784,22.57 -27.536,22.888l-2.95,-0c-6.557,-0 -14.096,-0 -21.964,-0.318Z" style="fill:#ffb000;fill-rule:nonzero;"/>
    </g>
</svg>
