<?xml version="1.0" encoding="UTF-8" standalone="no"?>
<!DOCTYPE svg PUBLIC "-//W3C//DTD SVG 1.1//EN" "http://www.w3.org/Graphics/SVG/1.1/DTD/svg11.dtd">
<svg width="100%" height="100%" viewBox="0 0 297 298" version="1.1" xmlns="http://www.w3.org/2000/svg" xmlns:xlink="http://www.w3.org/1999/xlink" xml:space="preserve" xmlns:serif="http://www.serif.com/" style="fill-rule:evenodd;clip-rule:evenodd;stroke-linejoin:round;stroke-miterlimit:2;">
    <path d="M148.018,297.011l0.123,0.243l-0.685,0.639c0,-0 0.197,-0.316 0.562,-0.882Zm0.451,-0c0.364,0.566 0.561,0.882 0.561,0.882l-0.684,-0.639l0.123,-0.243Zm-9.965,-43.539l0,-155.798l-70.379,0l0,-20.174l70.379,-0l0,-15.383c-12.803,-4.118 -22.079,-16.134 -22.079,-30.298c-0,-17.562 14.257,-31.819 31.818,-31.819c17.561,-0 31.819,14.257 31.819,31.819c-0,14.164 -9.276,26.18 -22.08,30.298l0,15.383l70.379,-0l0,20.174l-70.379,0l0,155.798c27.017,-23.488 77.991,-39.43 106.969,-66.46c3.261,-3.042 5.76,-6.024 7.567,-8.918c-12.423,-2.776 -22.318,0.692 -22.398,0.696c26.985,-17.981 45.612,-19.219 45.809,-17.502c4.242,36.997 -17.133,59.104 -17.133,59.104c2.57,-9.515 3.524,-17.054 3.604,-22.922c-1.401,1.464 -2.896,2.937 -4.487,4.42c-34.235,31.934 -85.614,47.753 -111.632,72.023c-6.753,6.298 -13.685,16.191 -16.931,21.066c-0.29,0.752 -0.584,1.43 -0.881,2.032c-0.07,-0.108 -0.145,-0.224 -0.226,-0.349c-0.081,0.125 -0.156,0.241 -0.225,0.349c-0.298,-0.602 -0.591,-1.28 -0.881,-2.032c-3.247,-4.875 -10.179,-14.768 -16.931,-21.066c-26.019,-24.27 -77.398,-40.089 -111.633,-72.023c-1.59,-1.483 -3.085,-2.956 -4.486,-4.42c0.08,5.868 1.033,13.407 3.604,22.922c-0,0 -21.376,-22.107 -17.134,-59.104c0.197,-1.717 18.824,-0.479 45.81,17.502c-0.08,-0.004 -9.975,-3.472 -22.398,-0.696c1.806,2.894 4.305,5.876 7.566,8.918c28.978,27.03 79.952,42.972 106.969,66.46Zm9.739,-232.564c-6.022,-0 -10.91,4.889 -10.91,10.911c-0,6.021 4.888,10.91 10.91,10.91c6.022,0 10.911,-4.889 10.911,-10.91c-0,-6.022 -4.889,-10.911 -10.911,-10.911Z"/>
</svg>
