<svg xmlns="http://www.w3.org/2000/svg" xml:space="preserve" style="fill-rule:evenodd;clip-rule:evenodd;stroke-linejoin:round;stroke-miterlimit:2" viewBox="0 0 300 300"><path d="M0 0h300v300H0z" style="fill:none"/><path d="M113.409 195.849c.715-23.108 5.363-80.083 6.078-91.698H87.068c-4.529 11.371-27.771 68.835-37.902 91.698h20.977c1.311-3.913 3.814-11.126 7.032-19.807h17.64c-1.192 9.048-2.145 16.261-2.86 19.807h21.454Zm-30.274-35.823c3.575-9.659 7.389-19.685 10.846-28.366a443.79 443.79 0 0 0 6.555-16.627h.715c-.595 4.523-1.191 10.637-1.549 16.383-.834 8.803-1.907 18.951-2.98 28.732h-6.913c-1.788 0-4.171 0-6.674-.122Zm95.947 35.823c.715-23.108 5.364-80.083 6.079-91.698h-32.42c-4.529 11.371-27.771 68.835-37.902 91.698h20.977c1.312-3.913 3.815-11.126 7.033-19.807h17.64c-1.192 9.048-2.146 16.261-2.861 19.807h21.454Zm-30.274-35.823c3.576-9.659 7.39-19.685 10.846-28.366a445.707 445.707 0 0 0 6.556-16.627h.715c-.596 4.523-1.192 10.637-1.55 16.383-.834 8.803-1.907 18.951-2.979 28.732h-6.913c-1.788 0-4.172 0-6.675-.122Zm95.948 35.823c.715-23.108 5.363-80.083 6.078-91.698h-32.419c-4.529 11.371-27.771 68.835-37.902 91.698h20.977c1.311-3.913 3.814-11.126 7.032-19.807h17.64c-1.192 9.048-2.145 16.261-2.86 19.807h21.454Zm-30.274-35.823c3.575-9.659 7.389-19.685 10.846-28.366a443.79 443.79 0 0 0 6.555-16.627h.715c-.596 4.523-1.192 10.637-1.549 16.383-.834 8.803-1.907 18.951-2.98 28.732h-6.913c-1.788 0-4.171 0-6.674-.122Z" style="fill-rule:nonzero"/></svg>