<svg xmlns="http://www.w3.org/2000/svg" xml:space="preserve" style="fill-rule:evenodd;clip-rule:evenodd;stroke-linejoin:round;stroke-miterlimit:2" viewBox="0 0 300 300"><path d="M0 0h300v300H0z" style="fill:none"/><path d="M146.154 195.781c.733-23.074 5.494-79.964 6.227-91.562h-33.207c-4.639 11.353-28.445 68.733-38.823 91.562h21.487c1.343-3.906 3.907-11.109 7.203-19.777h18.068c-1.22 9.034-2.197 16.237-2.93 19.777h21.975Zm-31.009-35.77c3.663-9.645 7.569-19.656 11.11-28.323a437.728 437.728 0 0 0 6.714-16.604h.733c-.611 4.517-1.221 10.621-1.587 16.359-.855 8.79-1.954 18.923-3.052 28.69h-7.081c-1.831 0-4.273 0-6.837-.122Zm98.277 35.77c.733-23.074 5.494-79.964 6.227-91.562h-33.207c-4.639 11.353-28.446 68.733-38.823 91.562h21.487c1.343-3.906 3.907-11.109 7.203-19.777h18.068c-1.221 9.034-2.197 16.237-2.93 19.777h21.975Zm-31.009-35.77c3.663-9.645 7.569-19.656 11.11-28.323a439.404 439.404 0 0 0 6.714-16.604h.733c-.611 4.517-1.221 10.621-1.587 16.359-.855 8.79-1.954 18.923-3.052 28.69h-7.081c-1.831 0-4.273 0-6.837-.122Z" style="fill-rule:nonzero"/></svg>