<?xml version="1.0" encoding="UTF-8" standalone="no"?>
<!DOCTYPE svg PUBLIC "-//W3C//DTD SVG 1.1//EN" "http://www.w3.org/Graphics/SVG/1.1/DTD/svg11.dtd">
<svg width="100%" height="100%" viewBox="0 0 300 300" version="1.1" xmlns="http://www.w3.org/2000/svg" xmlns:xlink="http://www.w3.org/1999/xlink" xml:space="preserve" xmlns:serif="http://www.serif.com/" style="fill-rule:evenodd;clip-rule:evenodd;stroke-linejoin:round;stroke-miterlimit:2;">
    <rect id="Artboard1" x="0" y="0" width="300" height="300" style="fill:none;"/>
    <g id="Artboard11" serif:id="Artboard1">
        <path d="M173.525,276.993c58.586,0 84.323,-16.594 95.837,-63.327c7.789,-31.494 2.371,-54.184 -25.06,-62.65c-4.064,-1.355 -9.482,-2.371 -15.916,-3.048l0.677,-1.693c9.144,-1.016 17.271,-2.371 24.044,-4.741c25.399,-8.128 36.236,-20.319 42.67,-46.056c11.853,-45.379 -15.578,-72.471 -68.407,-72.471l-162.551,-0c-7.451,35.558 -16.594,73.148 -30.14,126.993c-13.207,53.845 -22.69,90.758 -33.188,126.993l172.034,0Zm-19.303,-108.706c15.578,0 22.012,7.112 16.594,28.785c-4.064,16.933 -12.869,22.351 -28.786,22.351c-7.788,-0 -15.916,-0 -25.398,-0.677c3.386,-14.901 7.45,-32.172 11.852,-49.782c9.483,-0.338 18.287,-0.677 25.738,-0.677Zm-15.239,-41.654c4.741,-18.625 9.143,-36.574 12.868,-50.797c9.144,-0.339 17.61,-0.339 25.738,-0.339c13.545,0 20.657,6.773 15.577,27.092c-4.402,17.61 -13.207,24.044 -28.446,24.383l-3.048,-0c-6.773,-0 -14.562,-0 -22.689,-0.339Z" style="fill-rule:nonzero;"/>
    </g>
</svg>
