<?xml version="1.0" encoding="UTF-8" standalone="no"?><!DOCTYPE svg PUBLIC "-//W3C//DTD SVG 1.1//EN" "http://www.w3.org/Graphics/SVG/1.1/DTD/svg11.dtd"><svg width="100%" height="100%" viewBox="0 0 400 343" version="1.1" xmlns="http://www.w3.org/2000/svg" xmlns:xlink="http://www.w3.org/1999/xlink" xml:space="preserve" xmlns:serif="http://www.serif.com/" style="fill-rule:evenodd;clip-rule:evenodd;stroke-linejoin:round;stroke-miterlimit:2;"><g transform="matrix(1,0,0,1,1.13687e-13,-28.9754)"><g transform="matrix(9.12131,0,0,9.12131,-798.42,-1136.79)"><path d="M112.933,165.307C121.583,165.307 125.383,162.857 127.083,155.957C128.233,151.307 127.433,147.957 123.383,146.707C122.783,146.507 121.983,146.357 121.033,146.257L121.133,146.007C122.483,145.857 123.683,145.657 124.683,145.307C128.433,144.107 130.033,142.307 130.983,138.507C132.733,131.807 128.683,127.807 120.883,127.807L96.883,127.807C95.783,133.057 94.433,138.607 92.433,146.557C90.483,154.507 89.083,159.957 87.533,165.307L112.933,165.307ZM110.083,149.257C112.383,149.257 113.333,150.307 112.533,153.507C111.933,156.007 110.633,156.807 108.283,156.807C107.133,156.807 105.933,156.807 104.533,156.707C105.033,154.507 105.633,151.957 106.283,149.357C107.683,149.307 108.983,149.257 110.083,149.257ZM107.833,143.107C108.533,140.357 109.183,137.707 109.733,135.607C111.083,135.557 112.333,135.557 113.533,135.557C115.533,135.557 116.583,136.557 115.833,139.557C115.183,142.157 113.883,143.107 111.633,143.157L111.183,143.157C110.183,143.157 109.033,143.157 107.833,143.107Z" style="fill-rule:nonzero;"/></g></g></svg>