<?xml version="1.0" encoding="UTF-8" standalone="no"?><!DOCTYPE svg PUBLIC "-//W3C//DTD SVG 1.1//EN" "http://www.w3.org/Graphics/SVG/1.1/DTD/svg11.dtd"><svg width="100%" height="100%" viewBox="0 0 2758 343" version="1.1" xmlns="http://www.w3.org/2000/svg" xmlns:xlink="http://www.w3.org/1999/xlink" xml:space="preserve" xmlns:serif="http://www.serif.com/" style="fill-rule:evenodd;clip-rule:evenodd;stroke-linejoin:round;stroke-miterlimit:2;"><path d="M231.681,342.049c78.9,0 113.561,-22.347 129.067,-85.284c10.489,-42.414 3.192,-72.971 -33.749,-84.372c-5.473,-1.824 -12.77,-3.193 -21.435,-4.105l0.912,-2.28c12.314,-1.368 23.259,-3.193 32.381,-6.385c34.205,-10.946 48.799,-27.364 57.464,-62.025c15.962,-61.113 -20.979,-97.598 -92.125,-97.598l-218.912,0c-10.033,47.887 -22.347,98.51 -40.59,171.025c-17.786,72.514 -30.556,122.225 -44.694,171.024l231.681,0Zm-25.995,-146.397c20.979,0 29.644,9.577 22.347,38.766c-5.473,22.803 -17.331,30.1 -38.766,30.1c-10.489,-0 -21.435,-0 -34.205,-0.912c4.561,-20.067 10.034,-43.326 15.963,-67.042c12.769,-0.456 24.627,-0.912 34.661,-0.912Zm-20.523,-56.096c6.385,-25.084 12.313,-49.255 17.33,-68.41c12.314,-0.456 23.715,-0.456 34.661,-0.456c18.243,0 27.82,9.121 20.979,36.485c-5.929,23.716 -17.786,32.381 -38.309,32.837l-4.105,0c-9.121,0 -19.611,0 -30.556,-0.456Z" style="fill-rule:nonzero;"/><path d="M454.241,0c-10.945,49.255 -22.803,98.51 -41.046,171.025c-18.242,72.97 -31.012,121.769 -44.238,171.024l141.38,0c3.649,-26.452 11.402,-64.761 21.435,-108.087c6.385,-0.456 10.034,-0.456 14.594,-0.456l6.841,-0c24.172,-0 26.452,11.857 20.067,72.058c-1.824,29.188 2.281,36.485 22.348,36.485l116.296,0c0,-16.418 2.737,-47.431 3.193,-69.778c3.192,-47.887 -12.77,-63.393 -59.745,-69.778l0.912,-3.192c60.201,-6.385 89.389,-28.276 103.071,-83.46c18.699,-77.075 -22.803,-115.841 -105.351,-115.841l-199.757,0Zm94.406,161.903c5.929,-25.995 12.77,-53.359 19.611,-80.267c10.489,-0.456 21.891,-0.912 27.364,-0.912c24.171,-0 34.204,10.033 25.539,45.606c-6.841,25.54 -18.242,36.029 -39.221,36.029c-12.77,0 -24.172,0 -33.293,-0.456Z" style="fill-rule:nonzero;"/><path d="M1015.2,342.049c2.736,-13.682 7.753,-33.749 12.314,-51.079c4.104,-18.243 9.577,-39.678 13.682,-52.904c-43.783,0.456 -97.598,0.912 -138.644,0.912c3.192,-11.401 5.928,-23.259 9.121,-35.117c46.063,0 95.318,0.912 133.171,2.281c5.017,-21.435 15.506,-62.025 20.523,-81.18c-39.222,1.368 -88.021,1.824 -134.539,1.824c2.736,-10.945 5.472,-22.347 8.209,-33.749c40.134,0 90.301,0.456 137.732,0.912c2.28,-11.401 7.297,-31.924 11.401,-48.342c4.105,-15.507 9.122,-34.661 12.314,-45.607l-279.112,0c-10.49,46.975 -22.803,98.51 -41.046,171.025c-17.786,72.97 -31.012,123.137 -44.238,171.024l279.112,0Z" style="fill-rule:nonzero;"/><path d="M1193.98,342.049c8.209,-37.397 18.242,-80.267 29.644,-126.786l6.385,-0c10.489,28.276 17.786,77.075 22.803,109.912c0.456,12.77 6.385,16.874 22.803,16.874l128.155,0c-3.193,-15.506 -11.402,-47.887 -20.523,-102.159c-2.281,-28.732 -9.578,-51.079 -39.222,-61.568c55.184,-23.26 102.159,-107.176 144.117,-178.322l-152.326,0c-11.858,22.347 -29.188,54.272 -57.92,100.334c-10.49,15.507 -23.26,33.293 -36.03,51.08l-2.28,-0c13.682,-54.728 27.364,-108.088 39.678,-151.414l-143.661,0c-10.945,48.799 -22.803,98.51 -41.046,171.025c-17.786,72.97 -30.556,121.313 -44.238,171.024l143.661,0Z" style="fill-rule:nonzero;"/><path d="M1564.31,342.049c8.209,-37.397 18.242,-80.267 29.644,-126.786l6.385,-0c10.489,28.276 17.786,77.075 22.803,109.912c0.456,12.77 6.385,16.874 22.803,16.874l128.155,0c-3.193,-15.506 -11.402,-47.887 -20.523,-102.159c-2.28,-28.732 -9.577,-51.079 -39.222,-61.568c55.184,-23.26 102.159,-107.176 144.117,-178.322l-152.326,0c-11.858,22.347 -29.188,54.272 -57.92,100.334c-10.49,15.507 -23.26,33.293 -36.029,51.08l-2.281,-0c13.682,-54.728 27.364,-108.088 39.678,-151.414l-143.661,0c-10.945,48.799 -22.803,98.51 -41.046,171.025c-17.786,72.97 -30.556,121.313 -44.238,171.024l143.661,0Z" style="fill-rule:nonzero;"/><path d="M1949.54,342.049c2.736,-12.77 6.385,-27.364 10.033,-41.502c3.193,-13.226 6.841,-26.908 10.034,-39.221c-22.803,0.912 -48.343,1.368 -68.41,1.368c6.385,-26.908 15.506,-62.937 22.803,-93.038c19.155,-76.163 36.942,-144.116 44.239,-169.656l-80.724,0c-6.841,32.381 -21.435,90.757 -41.502,171.025c-18.242,72.97 -37.853,148.677 -43.782,171.024l147.309,0Z" style="fill-rule:nonzero;"/><path d="M2202.2,342.049c2.737,-86.196 20.523,-298.723 23.26,-342.049l-124.05,0c-17.331,42.414 -106.263,256.765 -145.029,342.049l80.268,0c5.016,-14.594 14.594,-41.502 26.907,-73.882l67.498,-0c-4.561,33.748 -8.209,60.656 -10.945,73.882l82.091,0Zm-115.84,-133.627c13.682,-36.029 28.276,-73.427 41.502,-105.807c9.577,-22.347 18.698,-45.151 25.083,-62.025l2.737,-0c-2.281,16.874 -4.561,39.678 -5.929,61.113c-3.193,32.836 -7.297,70.69 -11.402,107.175l-26.452,0c-6.841,0 -15.962,0 -25.539,-0.456Z" style="fill-rule:nonzero;"/><path d="M2225.46,342.049l68.409,0c3.649,-19.155 15.507,-67.041 32.837,-138.188c6.841,-29.188 13.682,-61.569 20.523,-98.054l0.912,0c-1.368,30.557 -0.912,61.569 0.456,90.757c6.385,53.816 12.77,114.473 15.051,145.485l79.355,0c10.033,-43.782 22.803,-95.318 41.958,-171.48c17.786,-72.515 36.485,-143.205 43.782,-170.569l-67.041,0c-6.385,31.469 -20.067,92.125 -31.925,139.556c-6.385,27.364 -12.314,57.008 -17.787,87.565l-1.368,0.456c0.912,-26.908 0,-53.36 -1.368,-75.251c-4.105,-61.113 -10.489,-129.067 -10.946,-152.326l-87.564,0c-10.49,44.238 -24.172,98.51 -42.414,171.025c-17.787,72.97 -31.469,125.874 -42.87,171.024Z" style="fill-rule:nonzero;"/><path d="M2596.7,342.049c78.899,0 114.928,-35.117 147.309,-164.183c35.117,-140.469 0.456,-177.866 -78.443,-177.866l-96.23,0c-10.033,43.782 -23.715,98.966 -41.958,171.481c-17.787,72.514 -30.556,123.137 -43.326,170.568l112.648,0Zm-17.787,-71.602c5.473,-23.259 13.226,-53.816 24.172,-98.51c8.665,-35.573 18.243,-73.883 26.908,-104.895c6.841,-0.456 14.138,-0.456 20.979,-0.456c28.276,-0 40.59,14.138 17.786,105.807c-21.435,87.564 -36.941,98.51 -69.322,98.51c-7.297,-0 -13.682,-0 -20.523,-0.456Z" style="fill-rule:nonzero;"/></svg>