<?xml version="1.0" encoding="UTF-8" standalone="no"?><!DOCTYPE svg PUBLIC "-//W3C//DTD SVG 1.1//EN" "http://www.w3.org/Graphics/SVG/1.1/DTD/svg11.dtd"><svg width="100%" height="100%" viewBox="0 0 2630 343" version="1.1" xmlns="http://www.w3.org/2000/svg" xmlns:xlink="http://www.w3.org/1999/xlink" xml:space="preserve" xmlns:serif="http://www.serif.com/" style="fill-rule:evenodd;clip-rule:evenodd;stroke-linejoin:round;stroke-miterlimit:2;"><path d="M134.539,342.049c58.833,0 86.653,-22.803 102.159,-86.196c10.49,-41.958 6.841,-70.234 -16.418,-80.268c-4.561,-2.28 -10.49,-3.648 -17.787,-4.56l0.912,-2.737c10.034,-1.824 19.155,-3.648 26.452,-7.297c22.347,-10.945 33.749,-27.82 43.782,-66.129c15.507,-62.937 -9.577,-94.862 -68.41,-94.862l-119.945,-0c-9.577,46.063 -22.803,98.51 -41.046,171.025c-17.786,72.514 -30.556,123.593 -44.238,171.024l134.539,0Zm10.034,-150.958c22.803,0 31.012,10.946 21.435,49.256c-8.665,34.204 -20.067,41.501 -43.782,41.501c-8.666,0 -19.155,0 -30.557,-0.912c5.929,-26.908 14.138,-60.2 21.435,-88.932c11.402,-0.456 21.891,-0.913 31.469,-0.913Zm-19.611,-46.518c7.297,-30.101 15.506,-62.937 21.891,-87.565c10.946,-0.912 20.979,-0.912 31.013,-0.912c19.61,0 29.644,8.209 20.522,45.607c-8.209,31.012 -20.522,42.87 -41.501,43.326l-4.105,-0c-8.665,-0 -18.243,-0 -27.82,-0.456Z" style="fill-rule:nonzero;"/><path d="M333.84,0c-11.402,49.255 -23.259,98.51 -41.502,171.025c-18.243,72.97 -31.012,121.769 -43.782,171.024l78.899,0c5.017,-28.276 13.682,-68.41 24.628,-114.928c9.121,-0.456 11.857,-0.456 17.786,-0.456l4.561,-0c21.435,-0 24.171,10.489 16.418,87.108c0.912,23.259 1.824,28.276 13.226,28.276l65.673,0c0.457,-16.418 2.281,-47.431 2.737,-72.97c1.368,-42.871 -7.297,-57.009 -36.941,-62.481l0.912,-2.281c42.87,-7.753 65.673,-33.292 80.267,-93.037c19.611,-77.531 -10.489,-111.28 -72.514,-111.28l-110.368,-0Zm31.925,170.112c8.209,-34.661 17.33,-71.146 26.451,-107.631c9.122,-0.456 19.155,-0.912 23.716,-0.912c25.995,-0 36.485,10.945 24.627,58.832c-9.121,36.029 -23.259,50.624 -43.782,50.624c-12.77,-0.456 -23.715,-0.456 -31.012,-0.913Z" style="fill-rule:nonzero;"/><path d="M674.977,342.049c1.824,-9.577 5.929,-25.54 8.665,-37.853c3.649,-13.226 7.753,-29.645 10.49,-38.766c-35.117,0 -72.971,0.456 -102.615,0.456c5.017,-20.523 10.489,-43.326 16.874,-67.954c34.661,0.456 70.234,0.456 98.967,1.369c3.648,-16.419 12.313,-49.712 16.418,-64.762c-30.1,0.912 -64.761,0.912 -99.878,1.369c5.016,-20.979 10.489,-43.327 15.962,-65.218c29.644,0 66.129,0.456 102.159,0.912c2.28,-8.665 6.385,-25.083 9.121,-37.853c2.736,-10.946 6.385,-25.54 9.121,-33.749l-178.777,-0c-10.034,43.326 -23.716,98.51 -41.959,171.025c-17.786,72.97 -31.468,125.418 -43.326,171.024l178.778,0Z" style="fill-rule:nonzero;"/><path d="M790.362,342.049c8.665,-39.222 21.435,-89.389 34.204,-140.924l5.473,-0c7.753,32.381 16.875,86.196 22.347,129.066c1.369,9.122 5.473,11.858 15.963,11.858l68.866,0c-3.649,-16.874 -10.49,-61.113 -21.892,-116.297c-3.648,-20.066 -7.753,-36.941 -15.962,-49.255c39.222,-40.133 89.389,-125.418 121.77,-176.497l-89.389,-0c-12.314,24.628 -32.837,62.025 -60.657,108.088c-11.858,17.33 -23.715,33.748 -35.573,49.711l-0.456,-0c13.682,-55.184 28.732,-115.385 40.59,-157.799l-78.9,-0c-10.489,46.063 -23.259,98.054 -41.502,171.025c-17.786,72.97 -31.012,124.049 -43.782,171.024l78.9,0Z" style="fill-rule:nonzero;"/><path d="M1032.08,342.049c8.665,-39.222 21.435,-89.389 34.205,-140.924l5.473,-0c7.753,32.381 16.874,86.196 22.347,129.066c1.368,9.122 5.473,11.858 15.962,11.858l68.866,0c-3.648,-16.874 -10.489,-61.113 -21.891,-116.297c-3.648,-20.066 -7.753,-36.941 -15.962,-49.255c39.222,-40.133 89.389,-125.418 121.769,-176.497l-89.388,-0c-12.314,24.628 -32.837,62.025 -60.657,108.088c-11.858,17.33 -23.716,33.748 -35.573,49.711l-0.456,-0c13.682,-55.184 28.732,-115.385 40.589,-157.799l-78.899,-0c-10.489,46.063 -23.259,98.054 -41.502,171.025c-17.786,72.97 -31.012,124.049 -43.782,171.024l78.899,0Z" style="fill-rule:nonzero;"/><path d="M1452.94,342.049c5.017,-21.435 10.49,-42.87 15.963,-64.761c5.016,-20.979 10.945,-42.87 16.418,-63.849c-27.82,0.456 -57.464,0.912 -81.636,1.368c3.193,-14.138 6.841,-28.732 10.49,-43.326c18.698,-73.883 37.853,-146.853 44.694,-171.481l-148.677,-0c-6.385,32.837 -21.891,95.774 -41.046,171.025c-17.787,72.97 -36.941,144.116 -44.238,171.024l228.032,0Z" style="fill-rule:nonzero;"/><path d="M1835.13,342.049c-1.368,-86.652 9.578,-296.442 12.314,-342.049l-234.874,0c-17.786,44.694 -111.28,255.853 -154.15,342.049l147.309,0c3.649,-13.682 10.946,-35.573 20.067,-61.569l68.41,0c-4.105,26.452 -7.753,48.343 -10.946,61.569l151.87,0Zm-180.602,-139.1c11.858,-31.012 24.172,-62.937 36.486,-91.669c8.665,-19.611 17.786,-41.502 24.627,-58.832l2.737,-0c-1.825,17.786 -4.105,39.677 -4.105,58.376c-2.28,28.732 -5.473,61.113 -9.121,92.125l-50.624,0Z" style="fill-rule:nonzero;"/><path d="M1856.11,342.049l122.226,0c2.28,-14.138 10.489,-46.519 21.435,-93.949c5.929,-26.908 11.402,-52.448 15.962,-81.18l2.281,-0.456c0.912,23.715 3.192,47.431 7.297,70.69c10.033,36.941 21.435,77.075 25.995,104.895l144.573,0c9.121,-43.326 22.347,-95.318 41.502,-171.48c17.787,-72.515 35.573,-140.925 44.238,-170.569l-119.945,-0c-4.56,25.54 -14.138,68.41 -23.715,108.544c-4.105,18.698 -8.665,41.045 -13.226,65.673l-1.824,0.456c-0.913,-20.979 -3.649,-40.59 -5.929,-57.92c-7.297,-41.958 -20.523,-97.598 -21.435,-116.753l-154.15,-0c-10.49,46.975 -23.716,98.51 -41.958,171.025c-17.787,72.97 -31.469,124.505 -43.327,171.024Z" style="fill-rule:nonzero;"/><path d="M2420.26,342.049c114.473,0 166.008,-31.012 197.933,-158.255c35.573,-142.748 -13.226,-183.794 -127.243,-183.794l-171.48,-0c-10.49,46.519 -23.259,98.966 -41.502,171.481c-18.243,72.514 -30.557,122.225 -43.782,170.568l186.074,0Zm-21.435,-102.159c4.105,-18.698 9.578,-41.045 16.875,-70.234c6.841,-26.907 13.682,-53.359 20.523,-78.899c8.209,-0.456 15.962,-0.456 24.171,-0.456c26.908,-0 38.31,12.314 20.979,82.092c-14.594,57.92 -29.644,67.954 -59.288,67.954c-8.21,-0 -15.963,-0 -23.26,-0.457Z" style="fill-rule:nonzero;"/></svg>